<svg height='300px' width='300px' fill="#000000" xmlns="http://www.w3.org/2000/svg"
     xmlns:xlink="http://www.w3.org/1999/xlink" viewBox="0 0 100 100" version="1.1" x="0px" y="0px">
    <g stroke="none" stroke-width="1" fill="none" fill-rule="evenodd">
        <path d="M45,11 C48.3137085,11 51,13.6862915 51,17 L51,47 L81,47 C84.3137085,47 87,49.6862915 87,53 L87,83 C87,86.3137085 84.3137085,89 81,89 L15,89 C11.6862915,89 9,86.3137085 9,83 L9,17 C9,13.6862915 11.6862915,11 15,11 L45,11 Z M81,50 L51,50 L51,83 C51,84.093259 50.7076045,85.1182253 50.1967496,86.000963 L81,86 C82.5976809,86 83.9036609,84.75108 83.9949073,83.1762728 L84,83 L84,78 C84,77.4871642 83.6139598,77.0644928 83.1166211,77.0067277 L83,77 L82.5,77 C81.7203039,77 81.0795513,76.4051119 81.0068666,75.64446 L81,75.5 L81,60.5 C81,59.7203039 81.5948881,59.0795513 82.35554,59.0068666 L82.5,59 L83,59 C83.5522847,59 84,58.5522847 84,58 L84,53 C84,51.4023191 82.75108,50.0963391 81.1762728,50.0050927 L81,50 Z M20,14 L15,14 C13.4023191,14 12.0963391,15.24892 12.0050927,16.8237272 L12,17 L12,83 C12,84.5976809 13.24892,85.9036609 14.8237272,85.9949073 L15,86 L45,86 C46.5976809,86 47.9036609,84.75108 47.9949073,83.1762728 L48,83 L48,17 C48,15.4023191 46.75108,14.0963391 45.1762728,14.0050927 L45,14 L40,14 C39.4871642,14 39.0644928,14.3860402 39.0067277,14.8833789 L39,15 L39,15.5 C39,16.2796961 38.4051119,16.9204487 37.64446,16.9931334 L37.5,17 L22.5,17 C21.7203039,17 21.0795513,16.4051119 21.0068666,15.64446 L21,15.5 L21,15 C21,14.4477153 20.5522847,14 20,14 Z M57.5,14 C73.8392763,14 82.4889963,22.1747872 82.9780331,38.053235 L86.0930483,34.9393398 C86.6443767,34.3880114 87.5181066,34.3555803 88.1073646,34.8420466 L88.2143687,34.9393398 C88.7656971,35.4906682 88.7981282,36.3643981 88.3116619,36.9536561 L88.2143687,37.0606602 L82.5575144,42.7175144 C82.006186,43.2688428 81.1324561,43.3012739 80.5431981,42.8148077 L80.4361941,42.7175144 L74.7793398,37.0606602 C74.1935534,36.4748737 74.1935534,35.5251263 74.7793398,34.9393398 C75.3306682,34.3880114 76.2043981,34.3555803 76.7936561,34.8420466 L76.9006602,34.9393398 L79.9756867,38.0129812 C79.5041098,23.849302 72.1672393,17 57.5,17 C56.6715729,17 56,16.3284271 56,15.5 C56,14.6715729 56.6715729,14 57.5,14 Z"
              fill="#ffffff"></path>
    </g>
</svg>
